<svg width="26" height="26" viewBox="0 0 26 26" fill="none" xmlns="http://www.w3.org/2000/svg">
<path d="M3.71429 0C1.66562 0 0 1.66562 0 3.71429V22.2857C0 24.3344 1.66562 26 3.71429 26H22.2857C24.3344 26 26 24.3344 26 22.2857V3.71429C26 1.66562 24.3344 0 22.2857 0H3.71429ZM12.6518 13.9112L3.72589 8.14821C3.83036 7.21964 4.61384 6.5 5.57143 6.5H20.4286C21.3862 6.5 22.1696 7.21964 22.2741 8.14821L13.3482 13.9112C13.2437 13.9808 13.1219 14.0156 13 14.0156C12.8781 14.0156 12.7562 13.9808 12.6518 13.9112ZM14.358 15.4723L22.2857 10.3536V17.6429C22.2857 18.6701 21.4558 19.5 20.4286 19.5H5.57143C4.5442 19.5 3.71429 18.6701 3.71429 17.6429V10.3536L11.642 15.4723C12.0482 15.7335 12.5183 15.8728 13 15.8728C13.4817 15.8728 13.9518 15.7335 14.358 15.4723Z" />
</svg>
