<svg width="26" height="26" viewBox="0 0 26 26" fill="none" xmlns="http://www.w3.org/2000/svg">
<path d="M23.2143 0H2.78571C1.24777 0 0 1.24777 0 2.78571V23.2143C0 24.7522 1.24777 26 2.78571 26H23.2143C24.7522 26 26 24.7522 26 23.2143V2.78571C26 1.24777 24.7522 0 23.2143 0ZM16.0933 22.2683C15.6058 22.3554 15.4259 22.0536 15.4259 21.804C15.4259 21.4906 15.4375 19.8888 15.4375 18.5946C15.4375 17.6893 15.1357 17.1147 14.7817 16.8129C16.929 16.575 19.1924 16.279 19.1924 12.5705C19.1924 11.5143 18.8152 10.9862 18.2 10.3071C18.2987 10.0576 18.6295 9.03036 18.1013 7.69554C17.2946 7.44598 15.4491 8.73437 15.4491 8.73437C14.683 8.51964 13.8531 8.40937 13.0348 8.40937C12.2165 8.40937 11.3866 8.51964 10.6205 8.73437C10.6205 8.73437 8.775 7.44598 7.9683 7.69554C7.44018 9.02455 7.76518 10.0518 7.86964 10.3071C7.25446 10.9862 6.96429 11.5143 6.96429 12.5705C6.96429 16.2616 9.12902 16.575 11.2763 16.8129C10.9978 17.0625 10.7482 17.492 10.6612 18.1071C10.1098 18.3567 8.69955 18.7862 7.85804 17.3004C7.32991 16.3835 6.37812 16.308 6.37812 16.308C5.43795 16.2964 6.31429 16.9 6.31429 16.9C6.94107 17.1902 7.38214 18.3045 7.38214 18.3045C7.94509 20.0281 10.6379 19.4478 10.6379 19.4478C10.6379 20.2545 10.6496 21.5661 10.6496 21.804C10.6496 22.0536 10.4754 22.3554 9.98214 22.2683C6.15179 20.9857 3.47054 17.3411 3.47054 13.0812C3.47054 7.75357 7.54464 3.70848 12.8723 3.70848C18.2 3.70848 22.5179 7.75357 22.5179 13.0812C22.5237 17.3411 19.9237 20.9915 16.0933 22.2683ZM10.4 18.7223C10.2897 18.7455 10.1853 18.6991 10.1737 18.6237C10.1621 18.5366 10.2375 18.4612 10.3478 18.4379C10.458 18.4263 10.5625 18.4728 10.5741 18.5482C10.5915 18.6237 10.5161 18.6991 10.4 18.7223ZM9.84866 18.6701C9.84866 18.7455 9.76161 18.8094 9.64554 18.8094C9.51786 18.821 9.4308 18.7571 9.4308 18.6701C9.4308 18.5946 9.51786 18.5308 9.63393 18.5308C9.7442 18.5192 9.84866 18.583 9.84866 18.6701ZM9.05357 18.6062C9.03036 18.6817 8.91429 18.7165 8.81562 18.6817C8.70536 18.6585 8.62991 18.5714 8.65313 18.496C8.67634 18.4205 8.79241 18.3857 8.89107 18.4089C9.00714 18.4438 9.08259 18.5308 9.05357 18.6062ZM8.33973 18.2929C8.2875 18.3567 8.17723 18.3451 8.09018 18.258C8.00312 18.1826 7.97991 18.0723 8.03795 18.0201C8.09018 17.9562 8.20045 17.9679 8.2875 18.0549C8.36295 18.1304 8.39196 18.2464 8.33973 18.2929ZM7.81161 17.7647C7.75938 17.7996 7.66071 17.7647 7.59687 17.6777C7.53304 17.5906 7.53304 17.492 7.59687 17.4513C7.66071 17.3991 7.75938 17.4397 7.81161 17.5268C7.87545 17.6138 7.87545 17.7183 7.81161 17.7647ZM7.43438 17.2018C7.38214 17.254 7.29509 17.225 7.23125 17.167C7.16741 17.0915 7.1558 17.0045 7.20804 16.9638C7.26027 16.9116 7.34732 16.9406 7.41116 16.9987C7.475 17.0741 7.48661 17.1612 7.43438 17.2018ZM7.04554 16.7723C7.02232 16.8246 6.94687 16.8362 6.88304 16.7955C6.80759 16.7607 6.77277 16.6969 6.79598 16.6446C6.8192 16.6098 6.88304 16.5924 6.95848 16.6214C7.03393 16.6621 7.06875 16.7259 7.04554 16.7723Z" />
</svg>
