<svg width="26" height="27" viewBox="0 0 26 27" fill="none" xmlns="http://www.w3.org/2000/svg">
<path d="M3.71429 0.8125C1.66562 0.8125 0 2.43809 0 4.4375V22.5625C0 24.5619 1.66562 26.1875 3.71429 26.1875H22.2857C24.3344 26.1875 26 24.5619 26 22.5625V4.4375C26 2.43809 24.3344 0.8125 22.2857 0.8125H3.71429ZM5.57143 6.70312C5.57143 5.9498 6.19241 5.34375 6.96429 5.34375C14.9152 5.34375 21.3571 11.6309 21.3571 19.3906C21.3571 20.1439 20.7362 20.75 19.9643 20.75C19.1924 20.75 18.5714 20.1439 18.5714 19.3906C18.5714 13.1318 13.3772 8.0625 6.96429 8.0625C6.19241 8.0625 5.57143 7.45645 5.57143 6.70312ZM5.57143 12.1406C5.57143 11.3873 6.19241 10.7812 6.96429 10.7812C11.8335 10.7812 15.7857 14.6385 15.7857 19.3906C15.7857 20.1439 15.1647 20.75 14.3929 20.75C13.621 20.75 13 20.1439 13 19.3906C13 16.1395 10.2955 13.5 6.96429 13.5C6.19241 13.5 5.57143 12.8939 5.57143 12.1406ZM5.57143 18.9375C5.57143 18.4568 5.76709 17.9958 6.11537 17.6559C6.46365 17.316 6.93603 17.125 7.42857 17.125C7.92112 17.125 8.39349 17.316 8.74177 17.6559C9.09005 17.9958 9.28571 18.4568 9.28571 18.9375C9.28571 19.4182 9.09005 19.8792 8.74177 20.2191C8.39349 20.559 7.92112 20.75 7.42857 20.75C6.93603 20.75 6.46365 20.559 6.11537 20.2191C5.76709 19.8792 5.57143 19.4182 5.57143 18.9375Z" />
</svg>
