<?xml version="1.0" encoding="UTF-8"?>
<svg xmlns="http://www.w3.org/2000/svg" width="28" height="28" viewBox="-2 -2 24 24"><path d="M0 1.42857C0 0.638393 0.638393 0 1.42857 0C11.6875 0 20 8.3125 20 18.5714C20 19.3616 19.3616 20 18.5714 20C17.7813 20 17.1429 19.3616 17.1429 18.5714C17.1429 9.89286 10.1071 2.85714 1.42857 2.85714C0.638393 2.85714 0 2.21875 0 1.42857ZM0 17.1429C0 16.3851 0.30102 15.6584 0.836838 15.1226C1.37266 14.5867 2.09938 14.2857 2.85714 14.2857C3.6149 14.2857 4.34163 14.5867 4.87745 15.1226C5.41327 15.6584 5.71429 16.3851 5.71429 17.1429C5.71429 17.9006 5.41327 18.6273 4.87745 19.1632C4.34163 19.699 3.6149 20 2.85714 20C2.09938 20 1.37266 19.699 0.836838 19.1632C0.30102 18.6273 0 17.9006 0 17.1429ZM1.42857 5.71429C8.53125 5.71429 14.2857 11.4688 14.2857 18.5714C14.2857 19.3616 13.6473 20 12.8571 20C12.067 20 11.4286 19.3616 11.4286 18.5714C11.4286 13.0491 6.95089 8.57143 1.42857 8.57143C0.638393 8.57143 0 7.93304 0 7.14286C0 6.35268 0.638393 5.71429 1.42857 5.71429Z" /></svg>
